<?xml version="1.0" standalone="no"?>
<!DOCTYPE svg PUBLIC "-//W3C//DTD SVG 20010904//EN"
 "http://www.w3.org/TR/2001/REC-SVG-20010904/DTD/svg10.dtd">
<svg version="1.0" xmlns="http://www.w3.org/2000/svg"
 width="700.000000pt" height="700.000000pt" viewBox="0 0 700.000000 700.000000"
 preserveAspectRatio="xMidYMid meet">
<metadata>
Created by potrace 1.14, written by Peter Selinger 2001-2017
</metadata>
<g transform="translate(0.000000,700.000000) scale(0.100000,-0.100000)"
fill="#000000" stroke="none">
<path d="M3290 6972 c-103 -43 -177 -90 -253 -161 -83 -79 -114 -123 -188
-266 -72 -141 -146 -282 -169 -320 -9 -16 -39 -70 -65 -120 -41 -77 -237 -439
-325 -600 -15 -27 -44 -81 -65 -120 -21 -38 -55 -101 -77 -138 -21 -38 -38
-70 -38 -72 0 -2 -17 -34 -38 -72 -22 -37 -56 -99 -77 -138 -32 -60 -200 -365
-277 -505 -14 -25 -41 -74 -60 -110 -19 -36 -53 -99 -76 -140 -116 -215 -174
-326 -406 -795 -140 -280 -272 -548 -294 -595 -22 -47 -79 -166 -127 -265 -92
-190 -166 -345 -245 -510 -26 -55 -77 -161 -113 -235 -157 -328 -255 -538
-265 -575 -11 -36 -92 -371 -106 -435 -3 -14 -10 -45 -16 -69 -22 -90 3 -166
63 -194 30 -14 131 -43 185 -53 13 -3 81 -18 150 -35 70 -16 186 -43 257 -59
72 -17 166 -38 210 -49 44 -10 202 -47 350 -81 350 -81 382 -88 690 -160 143
-34 271 -63 285 -66 14 -3 50 -12 81 -20 109 -27 177 -14 216 43 11 16 41 116
68 223 54 217 79 302 101 336 9 12 121 96 250 186 129 90 332 231 451 315 238
166 281 195 548 381 99 69 200 140 225 157 25 17 232 161 460 319 228 159 435
307 459 330 96 91 164 236 161 346 -1 30 -1 73 -2 95 0 22 3 74 8 115 25 234
-6 432 -101 638 -20 41 -34 77 -32 78 2 2 332 4 733 4 620 0 738 3 789 16 157
40 271 131 343 274 l37 74 0 146 0 145 -35 70 c-46 93 -144 192 -231 233 -124
59 -54 57 -1792 56 -879 0 -1597 0 -1597 0 0 8 54 137 99 239 32 73 103 231
156 352 97 221 117 265 161 363 13 29 24 54 24 57 0 2 13 32 29 67 116 251
244 551 257 602 16 58 20 173 9 226 -2 14 -7 39 -11 55 -15 72 -79 180 -149
251 -56 58 -88 80 -165 117 -142 68 -177 77 -293 77 -88 -1 -111 -4 -167 -28z
m312 -284 c108 -50 178 -157 178 -272 0 -54 -11 -95 -48 -177 -11 -24 -34 -78
-52 -119 -18 -41 -43 -97 -55 -125 -13 -27 -134 -304 -270 -615 -136 -311
-258 -590 -272 -620 -14 -30 -68 -152 -120 -270 -61 -139 -105 -224 -123 -241
-18 -18 -64 -38 -131 -58 -57 -18 -153 -47 -214 -65 -60 -19 -155 -48 -210
-64 -55 -17 -113 -34 -130 -38 -16 -4 -34 -9 -40 -13 -5 -3 -14 -6 -20 -7 -5
-1 -70 -20 -144 -43 -73 -22 -146 -41 -161 -41 l-29 0 44 78 c24 44 77 144
118 223 41 79 152 286 247 459 95 173 187 342 205 375 18 33 138 254 268 490
129 237 249 457 267 490 18 33 58 105 88 160 30 55 72 132 92 170 101 187 117
215 145 248 86 99 243 131 367 75z m2960 -2401 c182 -91 163 -339 -31 -405
-53 -19 -1641 -16 -1685 2 -30 12 -77 52 -207 176 -101 96 -243 225 -250 228
-47 18 115 21 1064 19 1019 -2 1074 -3 1109 -20z m-2566 -93 c30 -8 78 -32
108 -52 79 -54 301 -258 546 -502 128 -127 163 -168 192 -225 36 -70 61 -143
72 -202 5 -31 5 -31 -25 -23 -59 17 -115 63 -174 142 -97 130 -331 341 -493
446 -33 22 -101 52 -149 68 -86 28 -93 29 -293 28 -174 0 -1081 -14 -1099 -16
-3 0 -19 0 -36 1 l-30 2 25 11 c14 5 36 12 50 14 23 5 621 177 920 266 74 22
149 43 165 48 51 14 164 11 221 -6z m34 -652 c95 -31 140 -65 313 -235 207
-204 219 -229 220 -472 0 -124 -3 -156 -18 -188 -37 -79 -136 -110 -213 -67
-46 26 -82 83 -82 132 0 45 -29 132 -62 189 -56 94 -201 210 -266 211 -21 0
-105 -19 -187 -42 -83 -23 -157 -43 -165 -45 -8 -2 -211 -58 -450 -125 -239
-67 -459 -128 -488 -135 -58 -15 -82 -30 -110 -66 -24 -30 -30 -59 -37 -189
-3 -58 -8 -134 -10 -170 -6 -93 -15 -233 -20 -315 -3 -38 -7 -110 -10 -160 -5
-97 -11 -196 -20 -340 -12 -189 -15 -233 -20 -340 -12 -229 -21 -351 -31 -435
-11 -85 -97 -403 -115 -423 -4 -5 -90 10 -190 33 -101 23 -222 51 -269 62 -47
11 -92 21 -100 23 -8 2 -82 19 -165 39 -82 19 -161 37 -175 40 -14 2 -72 16
-130 29 -172 42 -403 96 -430 101 -84 16 -466 109 -472 114 -9 9 38 197 82
337 59 184 48 160 460 1000 269 551 653 1311 694 1377 6 10 22 22 36 27 14 6
149 13 300 16 151 3 374 7 495 10 354 8 639 14 960 20 165 4 301 7 302 8 1 1
70 2 155 1 127 -1 164 -5 218 -22z m869 -741 c33 -60 35 -136 6 -198 -20 -45
-84 -113 -105 -113 -13 0 -13 0 9 46 28 58 54 197 49 260 -6 65 6 66 41 5z
m-1294 -71 c-4 -6 -27 -22 -53 -35 -26 -14 -54 -30 -62 -35 -8 -5 -54 -32
-102 -60 -104 -60 -138 -99 -138 -159 0 -81 61 -142 143 -143 49 -1 58 3 370
182 109 62 199 111 201 109 2 -2 16 -29 32 -59 60 -112 192 -212 319 -240 58
-13 177 -16 195 -5 9 5 11 4 6 -4 -4 -6 -33 -28 -64 -49 -48 -32 -463 -321
-527 -366 -20 -14 -655 -456 -685 -476 -8 -5 -78 -54 -155 -108 -77 -54 -178
-124 -225 -156 -47 -33 -106 -74 -132 -93 l-46 -33 3 42 c2 24 6 95 10 158 3
63 8 140 10 170 4 61 12 183 20 318 3 48 7 116 10 152 5 65 11 154 20 305 5
77 11 176 20 299 2 32 8 62 12 66 4 4 60 21 123 38 255 70 627 174 650 182 35
12 52 12 45 0z"/>
</g>
</svg>
